ply
format ascii 1.0
comment Created by Blender 2.93.5 - www.blender.org
element vertex 117
property float x
property float y
property float z
property float nx
property float ny
property float nz
property float s
property float t
element face 20
property list uchar uint vertex_indices
end_header
0.000000 -0.850640 0.000000 -0.303536 -0.934171 0.187589 0.000000 0.000000
0.276385 -0.850640 0.447215 -0.303536 -0.934171 0.187589 0.000000 0.000000
-0.223607 -0.688180 0.447215 -0.303536 -0.934171 0.187589 0.000000 0.000000
-0.723600 -0.525720 0.447215 -0.303536 -0.934171 0.187589 0.000000 0.000000
-0.499992 -0.688180 0.000000 -0.303536 -0.934171 0.187589 0.000000 0.000000
-0.276385 -0.850640 -0.447215 -0.303536 -0.934171 0.187589 0.000000 0.000000
-0.723600 -0.525720 0.447215 -0.187597 -0.577354 0.794651 0.000000 0.000000
-0.223607 -0.688180 0.447215 -0.187597 -0.577354 0.794651 0.000000 0.000000
0.276385 -0.850640 0.447215 -0.187597 -0.577354 0.794651 0.000000 0.000000
0.138193 -0.425320 0.723607 -0.187597 -0.577354 0.794651 0.000000 0.000000
0.000000 0.000000 1.000000 -0.187597 -0.577354 0.794651 0.000000 0.000000
-0.361800 -0.262860 0.723607 -0.187597 -0.577354 0.794651 0.000000 0.000000
-0.723600 0.525720 0.447215 -0.607065 0.000000 0.794652 0.000000 0.000000
-0.723600 0.000000 0.447215 -0.607065 0.000000 0.794652 0.000000 0.000000
-0.723600 -0.525720 0.447215 -0.607065 0.000000 0.794652 0.000000 0.000000
-0.361800 -0.262860 0.723607 -0.607065 0.000000 0.794652 0.000000 0.000000
0.000000 0.000000 1.000000 -0.607065 0.000000 0.794652 0.000000 0.000000
-0.361800 0.262860 0.723607 -0.607065 0.000000 0.794652 0.000000 0.000000
-0.809012 -0.262860 0.000000 -0.982246 0.000000 0.187597 0.000000 0.000000
-0.723600 -0.525720 0.447215 -0.982246 0.000000 0.187597 0.000000 0.000000
-0.723600 0.525720 0.447215 -0.982246 0.000000 0.187597 0.000000 0.000000
-0.809012 0.262860 0.000000 -0.982246 0.000000 0.187597 0.000000 0.000000
-0.894425 0.000000 -0.447215 -0.982246 0.000000 0.187597 0.000000 0.000000
-0.894425 0.000000 -0.447215 -0.794649 -0.577359 -0.187587 0.000000 0.000000
-0.585405 -0.425320 -0.447215 -0.794649 -0.577359 -0.187587 0.000000 0.000000
-0.276385 -0.850640 -0.447215 -0.794649 -0.577359 -0.187587 0.000000 0.000000
-0.499992 -0.688180 0.000000 -0.794649 -0.577359 -0.187587 0.000000 0.000000
-0.723600 -0.525720 0.447215 -0.794649 -0.577359 -0.187587 0.000000 0.000000
-0.809012 -0.262860 0.000000 -0.794649 -0.577359 -0.187587 0.000000 0.000000
-0.276385 -0.850640 -0.447215 0.303536 -0.934172 -0.187589 0.000000 0.000000
0.223607 -0.688180 -0.447215 0.303536 -0.934172 -0.187589 0.000000 0.000000
0.723600 -0.525720 -0.447215 0.303536 -0.934172 -0.187589 0.000000 0.000000
0.499992 -0.688180 0.000000 0.303536 -0.934172 -0.187589 0.000000 0.000000
0.276385 -0.850640 0.447215 0.303536 -0.934172 -0.187589 0.000000 0.000000
0.000000 -0.850640 0.000000 0.303536 -0.934172 -0.187589 0.000000 0.000000
0.809012 -0.262860 0.000000 0.794649 -0.577359 0.187587 0.000000 0.000000
0.894425 0.000000 0.447215 0.794649 -0.577359 0.187587 0.000000 0.000000
0.585405 -0.425320 0.447215 0.794649 -0.577359 0.187587 0.000000 0.000000
0.276385 -0.850640 0.447215 0.794649 -0.577359 0.187587 0.000000 0.000000
0.499992 -0.688180 0.000000 0.794649 -0.577359 0.187587 0.000000 0.000000
0.723600 -0.525720 -0.447215 0.794649 -0.577359 0.187587 0.000000 0.000000
0.276385 -0.850640 0.447215 0.491122 -0.356829 0.794652 0.000000 0.000000
0.585405 -0.425320 0.447215 0.491122 -0.356829 0.794652 0.000000 0.000000
0.894425 0.000000 0.447215 0.491122 -0.356829 0.794652 0.000000 0.000000
0.447212 0.000000 0.723608 0.491122 -0.356829 0.794652 0.000000 0.000000
0.000000 0.000000 1.000000 0.491122 -0.356829 0.794652 0.000000 0.000000
0.138193 -0.425320 0.723607 0.491122 -0.356829 0.794652 0.000000 0.000000
0.585405 0.425320 0.447215 0.491122 0.356829 0.794652 0.000000 0.000000
0.276385 0.850640 0.447215 0.491122 0.356829 0.794652 0.000000 0.000000
0.138193 0.425320 0.723607 0.491122 0.356829 0.794652 0.000000 0.000000
0.000000 0.000000 1.000000 0.491122 0.356829 0.794652 0.000000 0.000000
0.447212 0.000000 0.723608 0.491122 0.356829 0.794652 0.000000 0.000000
0.894425 0.000000 0.447215 0.491122 0.356829 0.794652 0.000000 0.000000
0.276385 0.850640 0.447215 -0.187597 0.577354 0.794651 0.000000 0.000000
-0.223607 0.688180 0.447215 -0.187597 0.577354 0.794651 0.000000 0.000000
-0.723600 0.525720 0.447215 -0.187597 0.577354 0.794651 0.000000 0.000000
-0.361800 0.262860 0.723607 -0.187597 0.577354 0.794651 0.000000 0.000000
0.000000 0.000000 1.000000 -0.187597 0.577354 0.794651 0.000000 0.000000
0.138193 0.425320 0.723607 -0.187597 0.577354 0.794651 0.000000 0.000000
-0.276385 0.850640 -0.447215 -0.794649 0.577359 -0.187587 0.000000 0.000000
-0.585405 0.425320 -0.447215 -0.794649 0.577359 -0.187587 0.000000 0.000000
-0.894425 0.000000 -0.447215 -0.794649 0.577359 -0.187587 0.000000 0.000000
-0.809012 0.262860 0.000000 -0.794649 0.577359 -0.187587 0.000000 0.000000
-0.723600 0.525720 0.447215 -0.794649 0.577359 -0.187587 0.000000 0.000000
-0.499992 0.688180 0.000000 -0.794649 0.577359 -0.187587 0.000000 0.000000
0.276385 0.850640 0.447215 -0.303536 0.934171 0.187589 0.000000 0.000000
0.000000 0.850640 0.000000 -0.303536 0.934171 0.187589 0.000000 0.000000
-0.276385 0.850640 -0.447215 -0.303536 0.934171 0.187589 0.000000 0.000000
-0.723600 0.525720 0.447215 -0.303536 0.934171 0.187589 0.000000 0.000000
-0.223607 0.688180 0.447215 -0.303536 0.934171 0.187589 0.000000 0.000000
0.723600 0.525720 -0.447215 0.303536 0.934171 -0.187589 0.000000 0.000000
0.223607 0.688180 -0.447215 0.303536 0.934171 -0.187589 0.000000 0.000000
-0.276385 0.850640 -0.447215 0.303536 0.934171 -0.187589 0.000000 0.000000
0.000000 0.850640 0.000000 0.303536 0.934171 -0.187589 0.000000 0.000000
0.276385 0.850640 0.447215 0.303536 0.934171 -0.187589 0.000000 0.000000
0.499992 0.688180 0.000000 0.303536 0.934171 -0.187589 0.000000 0.000000
0.894425 0.000000 0.447215 0.794649 0.577359 0.187587 0.000000 0.000000
0.809012 0.262860 0.000000 0.794649 0.577359 0.187587 0.000000 0.000000
0.723600 0.525720 -0.447215 0.794649 0.577359 0.187587 0.000000 0.000000
0.276385 0.850640 0.447215 0.794649 0.577359 0.187587 0.000000 0.000000
0.585405 0.425320 0.447215 0.794649 0.577359 0.187587 0.000000 0.000000
0.723600 -0.525720 -0.447215 0.982246 0.000000 -0.187597 0.000000 0.000000
0.723600 0.000000 -0.447215 0.982246 0.000000 -0.187597 0.000000 0.000000
0.723600 0.525720 -0.447215 0.982246 0.000000 -0.187597 0.000000 0.000000
0.809012 0.262860 0.000000 0.982246 0.000000 -0.187597 0.000000 0.000000
0.894425 0.000000 0.447215 0.982246 0.000000 -0.187597 0.000000 0.000000
0.809012 -0.262860 0.000000 0.982246 0.000000 -0.187597 0.000000 0.000000
0.723600 -0.525720 -0.447215 0.607065 0.000000 -0.794652 0.000000 0.000000
0.361800 -0.262860 -0.723607 0.607065 0.000000 -0.794652 0.000000 0.000000
0.000000 0.000000 -1.000000 0.607065 0.000000 -0.794652 0.000000 0.000000
0.361800 0.262860 -0.723607 0.607065 0.000000 -0.794652 0.000000 0.000000
0.723600 0.525720 -0.447215 0.607065 0.000000 -0.794652 0.000000 0.000000
0.723600 0.000000 -0.447215 0.607065 0.000000 -0.794652 0.000000 0.000000
-0.138193 -0.425320 -0.723608 0.187597 -0.577354 -0.794651 0.000000 0.000000
0.000000 0.000000 -1.000000 0.187597 -0.577354 -0.794651 0.000000 0.000000
0.361800 -0.262860 -0.723607 0.187597 -0.577354 -0.794651 0.000000 0.000000
0.723600 -0.525720 -0.447215 0.187597 -0.577354 -0.794651 0.000000 0.000000
0.223607 -0.688180 -0.447215 0.187597 -0.577354 -0.794651 0.000000 0.000000
-0.276385 -0.850640 -0.447215 0.187597 -0.577354 -0.794651 0.000000 0.000000
0.000000 0.000000 -1.000000 -0.491122 -0.356829 -0.794652 0.000000 0.000000
-0.138193 -0.425320 -0.723608 -0.491122 -0.356829 -0.794652 0.000000 0.000000
-0.276385 -0.850640 -0.447215 -0.491122 -0.356829 -0.794652 0.000000 0.000000
-0.585405 -0.425320 -0.447215 -0.491122 -0.356829 -0.794652 0.000000 0.000000
-0.894425 0.000000 -0.447215 -0.491122 -0.356829 -0.794652 0.000000 0.000000
-0.447212 0.000000 -0.723608 -0.491122 -0.356829 -0.794652 0.000000 0.000000
0.000000 0.000000 -1.000000 -0.491122 0.356829 -0.794652 0.000000 0.000000
-0.447212 0.000000 -0.723608 -0.491122 0.356829 -0.794652 0.000000 0.000000
-0.894425 0.000000 -0.447215 -0.491122 0.356829 -0.794652 0.000000 0.000000
-0.585405 0.425320 -0.447215 -0.491122 0.356829 -0.794652 0.000000 0.000000
-0.276385 0.850640 -0.447215 -0.491122 0.356829 -0.794652 0.000000 0.000000
-0.138193 0.425320 -0.723608 -0.491122 0.356829 -0.794652 0.000000 0.000000
0.723600 0.525720 -0.447215 0.187597 0.577354 -0.794651 0.000000 0.000000
0.361800 0.262860 -0.723607 0.187597 0.577354 -0.794651 0.000000 0.000000
0.000000 0.000000 -1.000000 0.187597 0.577354 -0.794651 0.000000 0.000000
-0.138193 0.425320 -0.723608 0.187597 0.577354 -0.794651 0.000000 0.000000
-0.276385 0.850640 -0.447215 0.187597 0.577354 -0.794651 0.000000 0.000000
0.223607 0.688180 -0.447215 0.187597 0.577354 -0.794651 0.000000 0.000000
6 0 1 2 3 4 5
6 6 7 8 9 10 11
6 12 13 14 15 16 17
5 18 19 20 21 22
6 23 24 25 26 27 28
6 29 30 31 32 33 34
6 35 36 37 38 39 40
6 41 42 43 44 45 46
6 47 48 49 50 51 52
6 53 54 55 56 57 58
6 59 60 61 62 63 64
5 65 66 67 68 69
6 70 71 72 73 74 75
5 76 77 78 79 80
6 81 82 83 84 85 86
6 87 88 89 90 91 92
6 93 94 95 96 97 98
6 99 100 101 102 103 104
6 105 106 107 108 109 110
6 111 112 113 114 115 116
