ply
format ascii 1.0
comment Created by Blender 2.93.5 - www.blender.org
element vertex 378
property float x
property float y
property float z
property float nx
property float ny
property float nz
property float s
property float t
element face 320
property list uchar uint vertex_indices
end_header
0.000000 0.000000 -1.000000 0.187597 -0.577354 -0.794651 0.181819 0.000000
0.180900 -0.131430 -0.861804 0.187597 -0.577354 -0.794651 0.204546 0.039365
-0.069096 -0.212660 -0.861804 0.187597 -0.577354 -0.794651 0.159092 0.039365
0.723600 -0.525720 -0.447215 0.607065 0.000000 -0.794652 0.272728 0.157461
0.542700 -0.394290 -0.585411 0.607065 0.000000 -0.794652 0.295455 0.118096
0.723600 -0.262860 -0.447215 0.607065 0.000000 -0.794652 0.318182 0.157461
0.000000 0.000000 -1.000000 -0.491122 -0.356829 -0.794652 0.909091 0.000000
-0.069096 -0.212660 -0.861804 -0.491122 -0.356829 -0.794652 0.931818 0.039365
-0.223606 0.000000 -0.861804 -0.491122 -0.356829 -0.794652 0.886364 0.039365
0.000000 0.000000 -1.000000 -0.491122 0.356829 -0.794652 0.727273 0.000000
-0.223606 0.000000 -0.861804 -0.491122 0.356829 -0.794652 0.750000 0.039365
-0.069096 0.212660 -0.861804 -0.491122 0.356829 -0.794652 0.704546 0.039365
0.000000 0.000000 -1.000000 0.187597 0.577354 -0.794651 0.545455 0.000000
-0.069096 0.212660 -0.861804 0.187597 0.577354 -0.794651 0.568182 0.039365
0.180900 0.131430 -0.861804 0.187597 0.577354 -0.794651 0.522728 0.039365
0.723600 -0.525720 -0.447215 0.982246 0.000000 -0.187597 0.272728 0.157461
0.723600 -0.262860 -0.447215 0.982246 0.000000 -0.187597 0.318182 0.157461
0.766306 -0.394290 -0.223607 0.982246 0.000000 -0.187597 0.295455 0.196826
-0.276385 -0.850640 -0.447215 0.303535 -0.934171 -0.187589 0.090910 0.157461
-0.026389 -0.769410 -0.447215 0.303535 -0.934171 -0.187589 0.136364 0.157461
-0.138193 -0.850640 -0.223607 0.303535 -0.934171 -0.187589 0.113637 0.196826
-0.894425 0.000000 -0.447215 -0.794649 -0.577359 -0.187587 0.818182 0.157461
-0.739915 -0.212660 -0.447215 -0.794649 -0.577359 -0.187587 0.863636 0.157461
-0.851719 -0.131430 -0.223607 -0.794649 -0.577359 -0.187587 0.840909 0.196826
-0.276385 0.850640 -0.447215 -0.794649 0.577359 -0.187587 0.636364 0.157461
-0.430895 0.637980 -0.447215 -0.794649 0.577359 -0.187587 0.681818 0.157461
-0.388189 0.769410 -0.223607 -0.794649 0.577359 -0.187587 0.659091 0.196826
0.723600 0.525720 -0.447215 0.303535 0.934171 -0.187589 0.454546 0.157461
0.473604 0.606950 -0.447215 0.303535 0.934171 -0.187589 0.500000 0.157461
0.611796 0.606950 -0.223607 0.303535 0.934171 -0.187589 0.477273 0.196826
0.723600 -0.525720 -0.447215 0.794649 -0.577359 0.187587 0.272728 0.157461
0.766306 -0.394290 -0.223607 0.794649 -0.577359 0.187587 0.295455 0.196826
0.611796 -0.606950 -0.223607 0.794649 -0.577359 0.187587 0.250001 0.196826
-0.276385 -0.850640 -0.447215 -0.303535 -0.934171 0.187589 0.090910 0.157461
-0.138193 -0.850640 -0.223607 -0.303535 -0.934171 0.187589 0.113637 0.196826
-0.388189 -0.769410 -0.223607 -0.303535 -0.934171 0.187589 0.068182 0.196826
-0.894425 0.000000 -0.447215 -0.982246 0.000000 0.187597 0.818182 0.157461
-0.851719 -0.131430 -0.223607 -0.982246 0.000000 0.187597 0.840909 0.196826
-0.851719 0.131430 -0.223607 -0.982246 0.000000 0.187597 0.795455 0.196826
-0.276385 0.850640 -0.447215 -0.303535 0.934171 0.187589 0.636364 0.157461
-0.388189 0.769410 -0.223607 -0.303535 0.934171 0.187589 0.659091 0.196826
-0.138193 0.850640 -0.223607 -0.303535 0.934171 0.187589 0.613637 0.196826
0.723600 0.525720 -0.447215 0.794649 0.577359 0.187587 0.454546 0.157461
0.611796 0.606950 -0.223607 0.794649 0.577359 0.187587 0.477273 0.196826
0.766306 0.394290 -0.223607 0.794649 0.577359 0.187587 0.431819 0.196826
0.276385 -0.850640 0.447215 0.491122 -0.356829 0.794652 0.181819 0.314921
0.430895 -0.637980 0.447215 0.491122 -0.356829 0.794652 0.227273 0.314921
0.207289 -0.637980 0.585411 0.491122 -0.356829 0.794652 0.204546 0.354286
-0.723600 -0.525720 0.447215 -0.187597 -0.577354 0.794651 0.000000 0.314921
-0.473604 -0.606950 0.447215 -0.187597 -0.577354 0.794651 0.045455 0.314921
-0.542700 -0.394290 0.585411 -0.187597 -0.577354 0.794651 0.022728 0.354286
-0.723600 0.525720 0.447215 -0.607065 0.000000 0.794652 0.727273 0.314921
-0.723600 0.262860 0.447215 -0.607065 0.000000 0.794652 0.772727 0.314921
-0.542700 0.394290 0.585411 -0.607065 0.000000 0.794652 0.750000 0.354286
0.276385 0.850640 0.447215 -0.187596 0.577354 0.794651 0.545455 0.314921
0.026389 0.769410 0.447215 -0.187596 0.577354 0.794651 0.590909 0.314921
0.207289 0.637980 0.585411 -0.187596 0.577354 0.794651 0.568182 0.354286
0.894425 0.000000 0.447215 0.491122 0.356829 0.794652 0.363637 0.314921
0.739915 0.212660 0.447215 0.491122 0.356829 0.794652 0.409091 0.314921
0.670819 0.000000 0.585411 0.491122 0.356829 0.794652 0.386364 0.354286
0.447212 0.000000 0.723608 0.491122 0.356829 0.794652 0.409092 0.393651
0.292702 0.212660 0.723608 0.491122 0.356829 0.794652 0.454546 0.393651
0.223606 0.000000 0.861804 0.491122 0.356829 0.794652 0.431819 0.433017
0.516309 0.212660 0.585411 0.491122 0.356829 0.794652 0.431819 0.354286
0.585405 0.425320 0.447215 0.491122 0.356829 0.794652 0.454546 0.314921
0.430895 0.637980 0.447215 0.491122 0.356829 0.794652 0.500000 0.314921
0.361799 0.425320 0.585411 0.491122 0.356829 0.794652 0.477273 0.354286
0.138193 0.425320 0.723607 -0.187597 0.577354 0.794651 0.590909 0.393651
-0.111804 0.344090 0.723607 -0.187597 0.577354 0.794651 0.636364 0.393651
0.069096 0.212660 0.861804 -0.187597 0.577354 0.794651 0.613637 0.433017
-0.042707 0.556750 0.585411 -0.187597 0.577354 0.794651 0.613637 0.354286
-0.223607 0.688180 0.447215 -0.187597 0.577354 0.794651 0.636364 0.314921
-0.473604 0.606950 0.447215 -0.187597 0.577354 0.794651 0.681818 0.314921
-0.292704 0.475520 0.585411 -0.187597 0.577354 0.794651 0.659091 0.354286
-0.361800 0.262860 0.723607 -0.607065 0.000000 0.794652 0.772727 0.393651
-0.361800 0.000000 0.723607 -0.607065 0.000000 0.794652 0.818182 0.393651
-0.180900 0.131430 0.861804 -0.607065 0.000000 0.794652 0.795455 0.433017
-0.361800 0.262860 0.723607 -0.607065 0.000000 0.794653 0.772727 0.393651
-0.542700 0.131430 0.585411 -0.607065 0.000000 0.794653 0.795455 0.354286
-0.361800 0.000000 0.723607 -0.607065 0.000000 0.794653 0.818182 0.393651
-0.723600 0.000000 0.447215 -0.607065 0.000000 0.794652 0.818182 0.314921
-0.723600 -0.262860 0.447215 -0.607065 0.000000 0.794652 0.863636 0.314921
-0.542700 -0.131430 0.585411 -0.607065 0.000000 0.794652 0.840909 0.354286
-0.361800 -0.262860 0.723607 -0.187597 -0.577354 0.794651 0.045455 0.393651
-0.111804 -0.344090 0.723607 -0.187597 -0.577354 0.794651 0.090910 0.393651
-0.180900 -0.131430 0.861804 -0.187597 -0.577354 0.794651 0.068182 0.433017
-0.292704 -0.475520 0.585411 -0.187597 -0.577354 0.794651 0.068182 0.354286
-0.223607 -0.688180 0.447215 -0.187597 -0.577354 0.794651 0.090910 0.314921
0.026389 -0.769410 0.447215 -0.187597 -0.577354 0.794651 0.136364 0.314921
-0.042707 -0.556750 0.585411 -0.187597 -0.577354 0.794651 0.113637 0.354286
0.138193 -0.425320 0.723607 0.491122 -0.356829 0.794652 0.227273 0.393651
0.292702 -0.212660 0.723608 0.491122 -0.356829 0.794652 0.272728 0.393651
0.069096 -0.212660 0.861804 0.491122 -0.356829 0.794652 0.250001 0.433017
0.361799 -0.425320 0.585411 0.491122 -0.356829 0.794652 0.250001 0.354286
0.585405 -0.425320 0.447215 0.491122 -0.356829 0.794652 0.272728 0.314921
0.739915 -0.212660 0.447215 0.491122 -0.356829 0.794652 0.318182 0.314921
0.516309 -0.212660 0.585411 0.491122 -0.356829 0.794652 0.295455 0.354286
0.809012 0.262860 0.000000 0.794649 0.577359 0.187587 0.409092 0.236191
0.697209 0.344090 0.223607 0.794649 0.577359 0.187587 0.431819 0.275556
0.851719 0.131430 0.223607 0.794649 0.577359 0.187587 0.386364 0.275556
0.654503 0.475520 0.000000 0.794649 0.577359 0.187587 0.454546 0.236191
0.499992 0.688180 0.000000 0.794649 0.577359 0.187587 0.500000 0.236191
0.388189 0.769410 0.223607 0.794649 0.577359 0.187587 0.522728 0.275556
0.542699 0.556750 0.223607 0.794649 0.577359 0.187587 0.477273 0.275556
0.000000 0.850640 0.000000 -0.303535 0.934171 0.187589 0.590909 0.236191
-0.111804 0.769410 0.223607 -0.303535 0.934171 0.187589 0.613637 0.275556
0.138193 0.850640 0.223607 -0.303535 0.934171 0.187589 0.568182 0.275556
-0.249996 0.769410 0.000000 -0.303535 0.934171 0.187589 0.636364 0.236191
-0.499992 0.688180 0.000000 -0.303535 0.934172 0.187589 0.681818 0.236191
-0.611796 0.606950 0.223607 -0.303535 0.934172 0.187589 0.704546 0.275556
-0.361800 0.688180 0.223607 -0.303535 0.934172 0.187589 0.659091 0.275556
-0.809012 0.262860 0.000000 -0.982246 0.000000 0.187597 0.772727 0.236191
-0.766306 0.131430 0.223607 -0.982246 0.000000 0.187597 0.795455 0.275556
-0.766306 0.394290 0.223607 -0.982246 0.000000 0.187597 0.750000 0.275556
-0.809012 0.000000 0.000000 -0.982246 0.000000 0.187597 0.818182 0.236191
-0.809012 -0.262860 0.000000 -0.982246 0.000000 0.187597 0.863636 0.236191
-0.766306 -0.394290 0.223607 -0.982246 0.000000 0.187597 0.886364 0.275556
-0.766306 -0.131430 0.223607 -0.982246 0.000000 0.187597 0.840909 0.275556
-0.499992 -0.688180 0.000000 -0.303535 -0.934172 0.187589 0.045455 0.236191
-0.361800 -0.688180 0.223607 -0.303535 -0.934172 0.187589 0.068182 0.275556
-0.611796 -0.606950 0.223607 -0.303535 -0.934172 0.187589 0.022728 0.275556
-0.499992 -0.688180 0.000000 -0.303536 -0.934171 0.187589 0.045455 0.236191
-0.249996 -0.769410 0.000000 -0.303536 -0.934171 0.187589 0.090910 0.236191
-0.361800 -0.688180 0.223607 -0.303536 -0.934171 0.187589 0.068182 0.275556
0.000000 -0.850640 0.000000 -0.303535 -0.934171 0.187589 0.136365 0.236191
0.138193 -0.850640 0.223607 -0.303535 -0.934171 0.187589 0.159092 0.275556
-0.111804 -0.769410 0.223607 -0.303535 -0.934171 0.187589 0.113637 0.275556
0.499992 -0.688180 0.000000 0.794649 -0.577359 0.187587 0.227273 0.236191
0.542699 -0.556750 0.223607 0.794649 -0.577359 0.187587 0.250001 0.275556
0.388189 -0.769410 0.223607 0.794649 -0.577359 0.187587 0.204546 0.275556
0.654503 -0.475520 0.000000 0.794649 -0.577359 0.187587 0.272728 0.236191
0.809012 -0.262860 0.000000 0.794649 -0.577359 0.187587 0.318182 0.236191
0.851719 -0.131430 0.223607 0.794649 -0.577359 0.187587 0.340910 0.275556
0.697209 -0.344090 0.223607 0.794649 -0.577359 0.187587 0.295455 0.275556
0.499992 0.688180 0.000000 0.303536 0.934171 -0.187589 0.500000 0.236191
0.249996 0.769410 0.000000 0.303536 0.934171 -0.187589 0.545455 0.236191
0.388189 0.769410 0.223607 0.303536 0.934171 -0.187589 0.522728 0.275556
0.361800 0.688180 -0.223607 0.303536 0.934171 -0.187589 0.522728 0.196826
0.223607 0.688180 -0.447215 0.303536 0.934171 -0.187589 0.545455 0.157461
-0.026389 0.769410 -0.447215 0.303536 0.934171 -0.187589 0.590909 0.157461
0.111804 0.769410 -0.223607 0.303536 0.934171 -0.187589 0.568182 0.196826
-0.499992 0.688180 0.000000 -0.794649 0.577359 -0.187587 0.681818 0.236191
-0.654503 0.475520 0.000000 -0.794649 0.577359 -0.187587 0.727273 0.236191
-0.611796 0.606950 0.223607 -0.794649 0.577359 -0.187587 0.704546 0.275556
-0.542699 0.556750 -0.223607 -0.794649 0.577359 -0.187587 0.704546 0.196826
-0.585405 0.425320 -0.447215 -0.794649 0.577359 -0.187587 0.727273 0.157461
-0.739915 0.212660 -0.447215 -0.794649 0.577359 -0.187587 0.772727 0.157461
-0.697209 0.344090 -0.223607 -0.794649 0.577359 -0.187587 0.750000 0.196826
-0.809012 -0.262860 0.000000 -0.794649 -0.577359 -0.187587 0.863636 0.236191
-0.654503 -0.475520 0.000000 -0.794649 -0.577359 -0.187587 0.909091 0.236191
-0.766306 -0.394290 0.223607 -0.794649 -0.577359 -0.187587 0.886364 0.275556
-0.697209 -0.344090 -0.223607 -0.794649 -0.577359 -0.187587 0.886364 0.196826
-0.585405 -0.425320 -0.447215 -0.794649 -0.577359 -0.187587 0.909091 0.157461
-0.430895 -0.637980 -0.447215 -0.794649 -0.577359 -0.187587 0.954545 0.157461
-0.542699 -0.556750 -0.223607 -0.794649 -0.577359 -0.187587 0.931818 0.196826
0.000000 -0.850640 0.000000 0.303535 -0.934171 -0.187589 0.136365 0.236191
0.249996 -0.769410 0.000000 0.303535 -0.934171 -0.187589 0.181819 0.236191
0.138193 -0.850640 0.223607 0.303535 -0.934171 -0.187589 0.159092 0.275556
0.111804 -0.769410 -0.223607 0.303535 -0.934171 -0.187589 0.159092 0.196826
0.223607 -0.688180 -0.447215 0.303535 -0.934171 -0.187589 0.181819 0.157461
0.473604 -0.606950 -0.447215 0.303535 -0.934171 -0.187589 0.227273 0.157461
0.361800 -0.688180 -0.223607 0.303535 -0.934171 -0.187589 0.204546 0.196826
0.809012 -0.262860 0.000000 0.982246 0.000000 -0.187597 0.318182 0.236191
0.809012 0.000000 0.000000 0.982246 0.000000 -0.187597 0.363637 0.236191
0.851719 -0.131430 0.223607 0.982246 0.000000 -0.187597 0.340910 0.275556
0.766306 -0.131430 -0.223607 0.982246 0.000000 -0.187597 0.340910 0.196826
0.723600 0.000000 -0.447215 0.982246 0.000000 -0.187597 0.363637 0.157461
0.723600 0.262860 -0.447215 0.982246 0.000000 -0.187597 0.409092 0.157461
0.766306 0.131430 -0.223607 0.982246 0.000000 -0.187597 0.386364 0.196826
0.361800 0.262860 -0.723607 0.187596 0.577354 -0.794651 0.500000 0.078731
0.292704 0.475520 -0.585411 0.187596 0.577354 -0.794651 0.522728 0.118096
0.542700 0.394290 -0.585411 0.187596 0.577354 -0.794651 0.477273 0.118096
0.361800 0.262860 -0.723607 0.187597 0.577354 -0.794651 0.500000 0.078731
0.111804 0.344090 -0.723608 0.187597 0.577354 -0.794651 0.545455 0.078731
0.292704 0.475520 -0.585411 0.187597 0.577354 -0.794651 0.522728 0.118096
-0.138193 0.425320 -0.723608 0.187597 0.577354 -0.794651 0.590909 0.078731
-0.207289 0.637980 -0.585411 0.187597 0.577354 -0.794651 0.613637 0.118096
0.042707 0.556750 -0.585411 0.187597 0.577354 -0.794651 0.568182 0.118096
-0.138193 0.425320 -0.723608 -0.491122 0.356829 -0.794652 0.681818 0.078731
-0.361799 0.425320 -0.585411 -0.491122 0.356829 -0.794652 0.704546 0.118096
-0.207289 0.637980 -0.585411 -0.491122 0.356829 -0.794652 0.659091 0.118096
-0.292702 0.212660 -0.723608 -0.491122 0.356829 -0.794652 0.727273 0.078731
-0.447212 0.000000 -0.723608 -0.491122 0.356829 -0.794652 0.772727 0.078731
-0.670819 0.000000 -0.585411 -0.491122 0.356829 -0.794652 0.795455 0.118096
-0.516309 0.212660 -0.585411 -0.491122 0.356829 -0.794652 0.750000 0.118096
-0.447212 0.000000 -0.723608 -0.491122 -0.356829 -0.794652 0.863636 0.078731
-0.516309 -0.212660 -0.585411 -0.491122 -0.356829 -0.794652 0.886364 0.118096
-0.670819 0.000000 -0.585411 -0.491122 -0.356829 -0.794652 0.840909 0.118096
-0.292702 -0.212660 -0.723608 -0.491122 -0.356829 -0.794652 0.909091 0.078731
-0.138193 -0.425320 -0.723608 -0.491122 -0.356829 -0.794652 0.954545 0.078731
-0.207289 -0.637980 -0.585411 -0.491122 -0.356829 -0.794652 0.977273 0.118096
-0.361799 -0.425320 -0.585411 -0.491122 -0.356829 -0.794652 0.931818 0.118096
0.723600 0.000000 -0.447215 0.607065 0.000000 -0.794652 0.363637 0.157461
0.542700 0.131430 -0.585411 0.607065 0.000000 -0.794652 0.386364 0.118096
0.723600 0.262860 -0.447215 0.607065 0.000000 -0.794652 0.409092 0.157461
0.542700 -0.131430 -0.585411 0.607065 0.000000 -0.794652 0.340910 0.118096
0.361800 -0.262860 -0.723607 0.607065 0.000000 -0.794652 0.318182 0.078731
0.180900 -0.131430 -0.861804 0.607065 0.000000 -0.794652 0.340910 0.039365
0.361800 0.000000 -0.723607 0.607065 0.000000 -0.794652 0.363637 0.078731
-0.138193 -0.425320 -0.723608 0.187597 -0.577354 -0.794651 0.136365 0.078731
0.042707 -0.556750 -0.585411 0.187597 -0.577354 -0.794651 0.159092 0.118096
-0.207289 -0.637980 -0.585411 0.187597 -0.577354 -0.794651 0.113637 0.118096
0.111804 -0.344090 -0.723608 0.187597 -0.577354 -0.794651 0.181819 0.078731
0.361800 -0.262860 -0.723607 0.187596 -0.577354 -0.794651 0.227273 0.078731
0.542700 -0.394290 -0.585411 0.187596 -0.577354 -0.794651 0.250001 0.118096
0.292704 -0.475520 -0.585411 0.187596 -0.577354 -0.794651 0.204546 0.118096
0.292704 -0.475520 -0.585411 0.187597 -0.577354 -0.794651 0.204546 0.118096
0.473604 -0.606950 -0.447215 0.187597 -0.577354 -0.794651 0.227273 0.157461
0.223607 -0.688180 -0.447215 0.187597 -0.577354 -0.794651 0.181819 0.157461
0.542700 -0.394290 -0.585411 0.187597 -0.577354 -0.794651 0.250001 0.118096
0.723600 -0.525720 -0.447215 0.187597 -0.577354 -0.794651 0.272728 0.157461
0.361800 -0.262860 -0.723607 0.187597 -0.577354 -0.794651 0.227273 0.078731
-0.207289 -0.637980 -0.585411 0.187596 -0.577354 -0.794651 0.113637 0.118096
-0.026389 -0.769410 -0.447215 0.187596 -0.577354 -0.794651 0.136364 0.157461
-0.276385 -0.850640 -0.447215 0.187596 -0.577354 -0.794651 0.090910 0.157461
0.042707 -0.556750 -0.585411 0.187596 -0.577354 -0.794651 0.159092 0.118096
-0.026389 -0.769410 -0.447215 0.187597 -0.577354 -0.794651 0.136364 0.157461
0.180900 0.131430 -0.861804 0.607065 0.000000 -0.794652 0.386364 0.039365
0.361800 0.262860 -0.723607 0.607065 0.000000 -0.794652 0.409092 0.078731
0.000000 0.000000 -1.000000 0.607065 0.000000 -0.794652 0.363637 0.000000
0.542700 0.131430 -0.585411 0.607065 0.000000 -0.794653 0.386364 0.118096
0.361800 0.000000 -0.723607 0.607065 0.000000 -0.794653 0.363637 0.078731
0.361800 0.262860 -0.723607 0.607065 0.000000 -0.794653 0.409092 0.078731
0.542700 -0.131430 -0.585411 0.607065 0.000000 -0.794653 0.340910 0.118096
0.361800 -0.262860 -0.723607 0.607065 0.000000 -0.794653 0.318182 0.078731
0.542700 0.394290 -0.585411 0.607065 0.000000 -0.794652 0.431819 0.118096
0.723600 0.525720 -0.447215 0.607065 0.000000 -0.794652 0.454546 0.157461
0.542700 0.394290 -0.585411 0.607065 0.000000 -0.794653 0.431819 0.118096
-0.430895 -0.637980 -0.447215 -0.491122 -0.356829 -0.794652 0.954545 0.157461
-0.585405 -0.425320 -0.447215 -0.491122 -0.356829 -0.794652 0.909091 0.157461
-0.276385 -0.850640 -0.447215 -0.491122 -0.356829 -0.794652 1.000000 0.157461
-0.739915 -0.212660 -0.447215 -0.491122 -0.356829 -0.794652 0.863636 0.157461
-0.894425 0.000000 -0.447215 -0.491122 -0.356829 -0.794652 0.818182 0.157461
-0.739915 0.212660 -0.447215 -0.491122 0.356829 -0.794652 0.772727 0.157461
-0.585405 0.425320 -0.447215 -0.491122 0.356829 -0.794652 0.727273 0.157461
-0.894425 0.000000 -0.447215 -0.491122 0.356829 -0.794652 0.818182 0.157461
-0.430895 0.637980 -0.447215 -0.491122 0.356829 -0.794652 0.681818 0.157461
-0.276385 0.850640 -0.447215 -0.491122 0.356829 -0.794652 0.636364 0.157461
-0.026389 0.769410 -0.447215 0.187597 0.577354 -0.794651 0.590909 0.157461
0.223607 0.688180 -0.447215 0.187597 0.577354 -0.794651 0.545455 0.157461
0.042707 0.556750 -0.585411 0.187596 0.577354 -0.794651 0.568182 0.118096
-0.207289 0.637980 -0.585411 0.187596 0.577354 -0.794651 0.613637 0.118096
-0.026389 0.769410 -0.447215 0.187596 0.577354 -0.794651 0.590909 0.157461
-0.276385 0.850640 -0.447215 0.187596 0.577354 -0.794651 0.636364 0.157461
0.542700 0.394290 -0.585411 0.187597 0.577354 -0.794651 0.477273 0.118096
0.473604 0.606950 -0.447215 0.187597 0.577354 -0.794651 0.500000 0.157461
0.723600 0.525720 -0.447215 0.187597 0.577354 -0.794651 0.454546 0.157461
0.766306 0.394290 -0.223607 0.982246 0.000000 -0.187597 0.431819 0.196826
0.809012 0.262860 0.000000 0.982246 0.000000 -0.187597 0.409092 0.236191
0.723600 0.525720 -0.447215 0.982246 0.000000 -0.187597 0.454546 0.157461
0.851719 0.131430 0.223607 0.982246 0.000000 -0.187597 0.386364 0.275556
0.894425 0.000000 0.447215 0.982246 0.000000 -0.187597 0.363637 0.314921
0.361800 -0.688180 -0.223607 0.303535 -0.934172 -0.187589 0.204546 0.196826
0.611796 -0.606950 -0.223607 0.303535 -0.934172 -0.187589 0.250001 0.196826
0.499992 -0.688180 0.000000 0.303535 -0.934172 -0.187589 0.227273 0.236191
0.611796 -0.606950 -0.223607 0.303535 -0.934171 -0.187589 0.250001 0.196826
0.723600 -0.525720 -0.447215 0.303535 -0.934171 -0.187589 0.272728 0.157461
0.249996 -0.769410 0.000000 0.303536 -0.934171 -0.187589 0.181819 0.236191
0.361800 -0.688180 -0.223607 0.303536 -0.934171 -0.187589 0.204546 0.196826
0.499992 -0.688180 0.000000 0.303536 -0.934171 -0.187589 0.227273 0.236191
0.111804 -0.769410 -0.223607 0.303536 -0.934171 -0.187589 0.159092 0.196826
0.223607 -0.688180 -0.447215 0.303536 -0.934171 -0.187589 0.181819 0.157461
0.388189 -0.769410 0.223607 0.303535 -0.934171 -0.187589 0.204546 0.275556
0.276385 -0.850640 0.447215 0.303535 -0.934171 -0.187589 0.181819 0.314921
0.388189 -0.769410 0.223607 0.303536 -0.934171 -0.187589 0.204546 0.275556
-0.388189 -0.769410 -0.223607 -0.794649 -0.577359 -0.187587 0.977273 0.196826
-0.499992 -0.688180 0.000000 -0.794649 -0.577359 -0.187587 0.954545 0.236191
-0.276385 -0.850640 -0.447215 -0.794649 -0.577359 -0.187587 1.000000 0.157461
-0.611796 -0.606950 0.223607 -0.794649 -0.577359 -0.187587 0.931818 0.275556
-0.723600 -0.525720 0.447215 -0.794649 -0.577359 -0.187587 0.909091 0.314921
-0.851719 0.131430 -0.223607 -0.794649 0.577359 -0.187587 0.795455 0.196826
-0.809012 0.262860 0.000000 -0.794649 0.577359 -0.187587 0.772727 0.236191
-0.894425 0.000000 -0.447215 -0.794649 0.577359 -0.187587 0.818182 0.157461
-0.766306 0.394290 0.223607 -0.794649 0.577359 -0.187587 0.750000 0.275556
-0.723600 0.525720 0.447215 -0.794649 0.577359 -0.187587 0.727273 0.314921
0.111804 0.769410 -0.223607 0.303535 0.934171 -0.187589 0.568182 0.196826
-0.138193 0.850640 -0.223607 0.303535 0.934171 -0.187589 0.613637 0.196826
0.000000 0.850640 0.000000 0.303535 0.934171 -0.187589 0.590909 0.236191
-0.026389 0.769410 -0.447215 0.303535 0.934171 -0.187589 0.590909 0.157461
-0.276385 0.850640 -0.447215 0.303535 0.934171 -0.187589 0.636364 0.157461
0.249996 0.769410 0.000000 0.303535 0.934171 -0.187589 0.545455 0.236191
0.388189 0.769410 0.223607 0.303535 0.934171 -0.187589 0.522728 0.275556
0.138193 0.850640 0.223607 0.303535 0.934171 -0.187589 0.568182 0.275556
0.276385 0.850640 0.447215 0.303535 0.934171 -0.187589 0.545455 0.314921
0.739915 -0.212660 0.447215 0.794649 -0.577359 0.187587 0.318182 0.314921
0.585405 -0.425320 0.447215 0.794649 -0.577359 0.187587 0.272728 0.314921
0.894425 0.000000 0.447215 0.794649 -0.577359 0.187587 0.363637 0.314921
0.430895 -0.637980 0.447215 0.794649 -0.577359 0.187587 0.227273 0.314921
0.276385 -0.850640 0.447215 0.794649 -0.577359 0.187587 0.181819 0.314921
-0.111804 -0.769410 0.223607 -0.303536 -0.934171 0.187589 0.113637 0.275556
0.026389 -0.769410 0.447215 -0.303536 -0.934171 0.187589 0.136364 0.314921
-0.223607 -0.688180 0.447215 -0.303536 -0.934171 0.187589 0.090910 0.314921
0.026389 -0.769410 0.447215 -0.303535 -0.934171 0.187589 0.136364 0.314921
0.276385 -0.850640 0.447215 -0.303535 -0.934171 0.187589 0.181819 0.314921
-0.249996 -0.769410 0.000000 -0.303535 -0.934171 0.187589 0.090910 0.236191
-0.611796 -0.606950 0.223607 -0.303535 -0.934171 0.187589 0.022728 0.275556
-0.473604 -0.606950 0.447215 -0.303535 -0.934171 0.187589 0.045455 0.314921
-0.723600 -0.525720 0.447215 -0.303535 -0.934171 0.187589 0.000000 0.314921
-0.473604 -0.606950 0.447215 -0.303535 -0.934172 0.187589 0.045455 0.314921
-0.361800 -0.688180 0.223607 -0.303535 -0.934171 0.187589 0.068182 0.275556
-0.223607 -0.688180 0.447215 -0.303535 -0.934171 0.187589 0.090910 0.314921
-0.723600 -0.262860 0.447215 -0.982246 0.000000 0.187597 0.863636 0.314921
-0.723600 0.000000 0.447215 -0.982246 0.000000 0.187597 0.818182 0.314921
-0.723600 -0.525720 0.447215 -0.982246 0.000000 0.187597 0.909091 0.314921
-0.723600 0.262860 0.447215 -0.982246 0.000000 0.187597 0.772727 0.314921
-0.723600 0.525720 0.447215 -0.982246 0.000000 0.187597 0.727273 0.314921
-0.361800 0.688180 0.223607 -0.303535 0.934171 0.187589 0.659091 0.275556
-0.473604 0.606950 0.447215 -0.303535 0.934171 0.187589 0.681818 0.314921
-0.223607 0.688180 0.447215 -0.303535 0.934171 0.187589 0.636364 0.314921
-0.473604 0.606950 0.447215 -0.303535 0.934172 0.187589 0.681818 0.314921
-0.611796 0.606950 0.223607 -0.303535 0.934171 0.187589 0.704546 0.275556
-0.723600 0.525720 0.447215 -0.303535 0.934171 0.187589 0.727273 0.314921
-0.111804 0.769410 0.223607 -0.303536 0.934171 0.187589 0.613637 0.275556
-0.361800 0.688180 0.223607 -0.303536 0.934171 0.187589 0.659091 0.275556
-0.223607 0.688180 0.447215 -0.303536 0.934171 0.187589 0.636364 0.314921
-0.249996 0.769410 0.000000 -0.303536 0.934171 0.187589 0.636364 0.236191
-0.499992 0.688180 0.000000 -0.303536 0.934171 0.187589 0.681818 0.236191
0.026389 0.769410 0.447215 -0.303535 0.934171 0.187589 0.590909 0.314921
0.276385 0.850640 0.447215 -0.303535 0.934171 0.187589 0.545455 0.314921
0.026389 0.769410 0.447215 -0.303536 0.934171 0.187589 0.590909 0.314921
0.430895 0.637980 0.447215 0.794649 0.577359 0.187587 0.500000 0.314921
0.585405 0.425320 0.447215 0.794649 0.577359 0.187587 0.454546 0.314921
0.276385 0.850640 0.447215 0.794649 0.577359 0.187587 0.545455 0.314921
0.739915 0.212660 0.447215 0.794649 0.577359 0.187587 0.409091 0.314921
0.894425 0.000000 0.447215 0.794649 0.577359 0.187587 0.363637 0.314921
0.670819 0.000000 0.585411 0.491122 -0.356829 0.794652 0.340910 0.354286
0.447212 0.000000 0.723608 0.491122 -0.356829 0.794652 0.318182 0.393651
0.894425 0.000000 0.447215 0.491122 -0.356829 0.794652 0.363637 0.314921
0.223606 0.000000 0.861804 0.491122 -0.356829 0.794652 0.295455 0.433017
0.000000 0.000000 1.000000 0.491122 -0.356829 0.794652 0.272728 0.472382
-0.042707 -0.556750 0.585411 -0.187596 -0.577354 0.794651 0.113637 0.354286
0.207289 -0.637980 0.585411 -0.187596 -0.577354 0.794651 0.159092 0.354286
0.138193 -0.425320 0.723607 -0.187596 -0.577354 0.794651 0.136365 0.393651
0.207289 -0.637980 0.585411 -0.187597 -0.577354 0.794651 0.159092 0.354286
0.026389 -0.769410 0.447215 -0.187596 -0.577354 0.794651 0.136364 0.314921
0.276385 -0.850640 0.447215 -0.187596 -0.577354 0.794651 0.181819 0.314921
0.138193 -0.425320 0.723607 -0.187597 -0.577354 0.794651 0.136365 0.393651
0.069096 -0.212660 0.861804 -0.187597 -0.577354 0.794651 0.113637 0.433017
0.000000 0.000000 1.000000 -0.187597 -0.577354 0.794651 0.090910 0.472382
-0.542700 -0.131430 0.585411 -0.607065 0.000000 0.794653 0.840909 0.354286
-0.542700 -0.394290 0.585411 -0.607065 0.000000 0.794653 0.886364 0.354286
-0.361800 -0.262860 0.723607 -0.607065 0.000000 0.794653 0.863636 0.393651
-0.542700 -0.394290 0.585411 -0.607065 0.000000 0.794652 0.886364 0.354286
-0.723600 -0.525720 0.447215 -0.607065 0.000000 0.794652 0.909091 0.314921
-0.542700 0.131430 0.585411 -0.607065 0.000000 0.794652 0.795455 0.354286
-0.180900 -0.131430 0.861804 -0.607065 0.000000 0.794652 0.840909 0.433017
0.000000 0.000000 1.000000 -0.607065 0.000000 0.794652 0.818182 0.472382
-0.361800 -0.262860 0.723607 -0.607065 0.000000 0.794652 0.863636 0.393651
-0.292704 0.475520 0.585411 -0.187596 0.577354 0.794651 0.659091 0.354286
-0.542700 0.394290 0.585411 -0.187596 0.577354 0.794651 0.704546 0.354286
-0.361800 0.262860 0.723607 -0.187596 0.577354 0.794651 0.681818 0.393651
-0.542700 0.394290 0.585411 -0.187597 0.577354 0.794651 0.704546 0.354286
-0.723600 0.525720 0.447215 -0.187597 0.577354 0.794651 0.727273 0.314921
-0.361800 0.262860 0.723607 -0.187597 0.577354 0.794651 0.681818 0.393651
-0.180900 0.131430 0.861804 -0.187597 0.577354 0.794651 0.659091 0.433017
0.000000 0.000000 1.000000 -0.187597 0.577354 0.794651 0.636364 0.472382
0.207289 0.637980 0.585411 0.491122 0.356829 0.794652 0.522728 0.354286
0.138193 0.425320 0.723607 0.491122 0.356829 0.794652 0.500000 0.393651
0.276385 0.850640 0.447215 0.491122 0.356829 0.794652 0.545455 0.314921
0.069096 0.212660 0.861804 0.491122 0.356829 0.794652 0.477273 0.433017
0.000000 0.000000 1.000000 0.491122 0.356829 0.794652 0.454546 0.472382
-0.042707 0.556750 0.585411 -0.187596 0.577354 0.794651 0.613637 0.354286
0.138193 0.425320 0.723607 -0.187596 0.577354 0.794651 0.590909 0.393651
0.207289 0.637980 0.585411 -0.187597 0.577354 0.794651 0.568182 0.354286
0.026389 0.769410 0.447215 -0.187597 0.577354 0.794651 0.590909 0.314921
-0.542700 0.394290 0.585411 -0.607065 0.000000 0.794653 0.750000 0.354286
-0.542700 -0.394290 0.585411 -0.187596 -0.577354 0.794651 0.022728 0.354286
-0.292704 -0.475520 0.585411 -0.187596 -0.577354 0.794651 0.068182 0.354286
-0.361800 -0.262860 0.723607 -0.187596 -0.577354 0.794651 0.045455 0.393651
-0.388189 0.769410 -0.223607 -0.303536 0.934171 0.187589 0.659091 0.196826
-0.388189 -0.769410 -0.223607 -0.303536 -0.934171 0.187589 0.068182 0.196826
0.611796 0.606950 -0.223607 0.303535 0.934172 -0.187589 0.477273 0.196826
0.361800 0.688180 -0.223607 0.303535 0.934172 -0.187589 0.522728 0.196826
0.499992 0.688180 0.000000 0.303535 0.934172 -0.187589 0.500000 0.236191
0.361800 0.688180 -0.223607 0.303535 0.934171 -0.187589 0.522728 0.196826
0.223607 0.688180 -0.447215 0.303535 0.934171 -0.187589 0.545455 0.157461
-0.026389 -0.769410 -0.447215 0.303536 -0.934171 -0.187589 0.136364 0.157461
0.542700 -0.394290 -0.585411 0.607065 0.000000 -0.794653 0.295455 0.118096
3 0 1 2
3 3 4 5
3 6 7 8
3 9 10 11
3 12 13 14
3 15 16 17
3 18 19 20
3 21 22 23
3 24 25 26
3 27 28 29
3 30 31 32
3 33 34 35
3 36 37 38
3 39 40 41
3 42 43 44
3 45 46 47
3 48 49 50
3 51 52 53
3 54 55 56
3 57 58 59
3 60 61 62
3 60 63 61
3 64 65 66
3 67 68 69
3 67 70 68
3 71 72 73
3 74 75 76
3 77 78 79
3 80 81 82
3 83 84 85
3 83 86 84
3 87 88 89
3 90 91 92
3 90 93 91
3 94 95 96
3 97 98 99
3 97 100 98
3 101 102 103
3 104 105 106
3 104 107 105
3 108 109 110
3 111 112 113
3 111 114 112
3 115 116 117
3 118 119 120
3 121 122 123
3 124 125 126
3 127 128 129
3 127 130 128
3 131 132 133
3 134 135 136
3 134 137 135
3 138 139 140
3 141 142 143
3 141 144 142
3 145 146 147
3 148 149 150
3 148 151 149
3 152 153 154
3 155 156 157
3 155 158 156
3 159 160 161
3 162 163 164
3 162 165 163
3 166 167 168
3 169 170 171
3 172 173 174
3 175 176 177
3 178 179 180
3 178 181 179
3 182 183 184
3 185 186 187
3 185 188 186
3 189 190 191
3 192 193 194
3 192 195 193
3 196 197 198
3 199 200 201
3 199 202 200
3 203 204 205
3 206 207 208
3 206 209 207
3 209 210 207
3 200 206 208
3 200 202 206
3 202 211 206
3 212 213 214
3 212 215 213
3 200 208 216
3 198 217 218
3 198 197 217
3 197 219 217
3 220 221 222
3 220 223 221
3 223 224 221
3 194 225 226
3 194 193 225
3 220 222 227
3 191 228 229
3 191 190 228
3 190 230 228
3 186 191 229
3 186 188 191
3 188 189 191
3 187 231 232
3 187 186 231
3 186 229 231
3 184 233 234
3 184 183 233
3 183 235 233
3 179 184 234
3 179 181 184
3 181 182 184
3 180 236 237
3 180 179 236
3 179 234 236
3 177 238 239
3 240 241 242
3 241 243 242
3 174 177 239
3 174 173 177
3 173 175 177
3 244 245 246
3 244 174 245
3 174 239 245
3 168 247 248
3 168 167 247
3 167 249 247
3 163 168 248
3 163 165 168
3 165 166 168
3 164 250 251
3 164 163 250
3 163 248 250
3 252 253 254
3 161 160 255
3 160 256 255
3 257 258 259
3 257 260 258
3 260 261 258
3 157 262 263
3 157 156 262
3 257 259 264
3 154 265 266
3 154 153 265
3 153 267 265
3 149 154 266
3 149 151 154
3 151 152 154
3 150 268 269
3 150 149 268
3 149 266 268
3 147 270 271
3 147 146 270
3 146 272 270
3 142 147 271
3 142 144 147
3 144 145 147
3 143 273 274
3 143 142 273
3 142 271 273
3 275 276 277
3 275 278 276
3 278 279 276
3 280 275 277
3 135 137 140
3 137 138 140
3 281 282 283
3 281 280 282
3 280 277 282
3 133 284 285
3 133 132 284
3 132 286 284
3 128 133 285
3 128 130 133
3 130 131 133
3 129 287 288
3 129 128 287
3 128 285 287
3 289 290 291
3 126 125 292
3 125 293 292
3 123 289 291
3 123 122 289
3 294 124 126
3 295 296 297
3 120 119 298
3 299 300 296
3 117 301 302
3 117 116 301
3 116 303 301
3 112 117 302
3 112 114 117
3 114 115 117
3 113 304 305
3 113 112 304
3 112 302 304
3 306 307 308
3 110 109 309
3 310 311 307
3 312 313 314
3 312 315 313
3 315 316 313
3 106 317 318
3 106 105 317
3 312 314 319
3 103 320 321
3 103 102 320
3 102 322 320
3 98 103 321
3 98 100 103
3 100 101 103
3 99 323 324
3 99 98 323
3 98 321 323
3 96 325 326
3 96 95 325
3 95 327 325
3 91 96 326
3 91 93 96
3 93 94 96
3 92 328 329
3 92 91 328
3 91 326 328
3 330 331 332
3 89 88 333
3 334 335 331
3 84 89 336
3 84 86 89
3 86 87 89
3 85 337 338
3 85 84 337
3 84 336 337
3 339 340 341
3 82 81 342
3 81 343 342
3 79 339 341
3 79 78 339
3 344 80 82
3 76 345 346
3 76 75 345
3 75 347 345
3 348 349 350
3 73 72 351
3 72 352 351
3 68 73 353
3 68 70 73
3 70 71 73
3 69 354 355
3 69 68 354
3 68 353 354
3 66 356 357
3 66 65 356
3 65 358 356
3 61 66 357
3 61 63 66
3 63 64 66
3 62 359 360
3 62 61 359
3 61 357 359
3 59 63 60
3 59 58 63
3 58 64 63
3 56 361 362
3 363 364 70
3 364 71 70
3 365 78 77
3 53 52 344
3 52 80 344
3 366 367 368
3 50 49 86
3 49 87 86
3 47 93 90
3 47 46 93
3 46 94 93
3 44 100 97
3 44 43 100
3 43 101 100
3 41 107 104
3 41 40 107
3 369 316 315
3 38 114 111
3 38 37 114
3 37 115 114
3 370 122 121
3 35 34 294
3 34 124 294
3 32 130 127
3 32 31 130
3 31 131 130
3 371 372 373
3 29 28 374
3 28 375 374
3 26 144 141
3 26 25 144
3 25 145 144
3 23 151 148
3 23 22 151
3 22 152 151
3 20 158 155
3 20 19 158
3 376 261 260
3 17 165 162
3 17 16 165
3 16 166 165
3 14 173 172
3 14 13 173
3 13 175 173
3 11 181 178
3 11 10 181
3 10 182 181
3 8 188 185
3 8 7 188
3 7 189 188
3 5 195 192
3 5 4 195
3 377 224 223
3 2 202 199
3 2 1 202
3 1 211 202
